<svg width="40" height="40" viewBox="0 0 40 40" fill="none" xmlns="http://www.w3.org/2000/svg">
<path d="M17.1733 2.27734L2.27734 17.1707L4.16267 19.056L19.056 4.16267L17.1733 2.27734ZM2.27734 22.8267L17.1707 37.7227L19.056 35.8347L4.16267 20.9413L2.27734 22.8267ZM22.8293 37.72L37.7227 22.8293L35.8373 20.9413L20.944 35.8347L22.8293 37.72ZM37.7227 17.168L22.8293 2.27734L20.944 4.16267L35.8373 19.056L37.7227 17.1707V17.168ZM37.7227 22.8293C38.0944 22.4579 38.3892 22.0141 38.5904 21.5287C38.7916 21.0432 38.8952 20.5228 38.8952 19.9973C38.8952 19.4718 38.7916 18.9515 38.5904 18.466C38.3892 17.9805 38.0944 17.5395 37.7227 17.168L35.8373 19.0533C35.9615 19.1772 36.06 19.3243 36.1272 19.4863C36.1945 19.6483 36.2291 19.822 36.2291 19.9973C36.2291 20.1727 36.1945 20.3464 36.1272 20.5084C36.06 20.6703 35.9615 20.8175 35.8373 20.9413L37.7227 22.8293ZM17.1707 37.7227C17.5421 38.0944 17.9859 38.3892 18.4713 38.5904C18.9568 38.7916 19.4772 38.8952 20.0027 38.8952C20.5282 38.8952 21.0485 38.7916 21.534 38.5904C22.0195 38.3892 22.4605 38.0944 22.832 37.7227L20.944 35.8373C20.8202 35.9615 20.6757 36.06 20.5137 36.1272C20.3517 36.1945 20.1781 36.2291 20.0027 36.2291C19.8273 36.2291 19.6536 36.1945 19.4916 36.1272C19.3297 36.06 19.1825 35.9615 19.0587 35.8373L17.1707 37.7227ZM2.27734 17.1707C1.90563 17.5421 1.61076 17.9859 1.40959 18.4713C1.20841 18.9568 1.10486 19.4772 1.10486 20.0027C1.10486 20.5282 1.20841 21.0485 1.40959 21.534C1.61076 22.0195 1.90563 22.4605 2.27734 22.832L4.16267 20.944C4.0385 20.8202 3.93999 20.6757 3.87277 20.5137C3.80555 20.3517 3.77095 20.1781 3.77095 20.0027C3.77095 19.8273 3.80555 19.6536 3.87277 19.4916C3.93999 19.3297 4.0385 19.1799 4.16267 19.056L2.27734 17.1707ZM19.056 4.16534C19.1799 4.04117 19.327 3.94266 19.489 3.87544C19.651 3.80822 19.8246 3.77362 20 3.77362C20.1754 3.77362 20.349 3.80822 20.511 3.87544C20.673 3.94266 20.8202 4.04117 20.944 4.16534L22.8293 2.27734C22.4579 1.90563 22.0141 1.61076 21.5287 1.40959C21.0432 1.20841 20.5228 1.10486 19.9973 1.10486C19.4718 1.10486 18.9515 1.20841 18.466 1.40959C17.9805 1.61076 17.5395 1.90563 17.168 2.27734L19.0533 4.16267L19.056 4.16534ZM13.7227 7.61334L16.3893 10.28L18.2773 8.392L15.6107 5.72534L13.7227 7.61334ZM20 13.3333C19.6464 13.3333 19.3072 13.1929 19.0572 12.9428C18.8071 12.6928 18.6667 12.3536 18.6667 12H16C16 13.0609 16.4214 14.0783 17.1716 14.8284C17.9217 15.5786 18.9391 16 20 16V13.3333ZM21.3333 12C21.3333 12.3536 21.1929 12.6928 20.9428 12.9428C20.6928 13.1929 20.3536 13.3333 20 13.3333V16C21.0609 16 22.0783 15.5786 22.8284 14.8284C23.5786 14.0783 24 13.0609 24 12H21.3333ZM20 10.6667C20.3536 10.6667 20.6928 10.8071 20.9428 11.0572C21.1929 11.3072 21.3333 11.6464 21.3333 12H24C24 10.9391 23.5786 9.92172 22.8284 9.17158C22.0783 8.42143 21.0609 8 20 8V10.6667ZM20 8C18.9391 8 17.9217 8.42143 17.1716 9.17158C16.4214 9.92172 16 10.9391 16 12H18.6667C18.6667 11.6464 18.8071 11.3072 19.0572 11.0572C19.3072 10.8071 19.6464 10.6667 20 10.6667V8ZM21.7227 15.6107L25.7227 19.6107L27.608 17.7227L23.608 13.7227L21.7227 15.6107ZM28 21.3333C27.6464 21.3333 27.3072 21.1929 27.0572 20.9428C26.8071 20.6928 26.6667 20.3536 26.6667 20H24C24 21.0609 24.4214 22.0783 25.1716 22.8284C25.9217 23.5786 26.9391 24 28 24V21.3333ZM29.3333 20C29.3333 20.3536 29.1929 20.6928 28.9428 20.9428C28.6928 21.1929 28.3536 21.3333 28 21.3333V24C29.0609 24 30.0783 23.5786 30.8284 22.8284C31.5786 22.0783 32 21.0609 32 20H29.3333ZM28 18.6667C28.3536 18.6667 28.6928 18.8071 28.9428 19.0572C29.1929 19.3072 29.3333 19.6464 29.3333 20H32C32 18.9391 31.5786 17.9217 30.8284 17.1716C30.0783 16.4214 29.0609 16 28 16V18.6667ZM28 16C26.9391 16 25.9217 16.4214 25.1716 17.1716C24.4214 17.9217 24 18.9391 24 20H26.6667C26.6667 19.6464 26.8071 19.3072 27.0572 19.0572C27.3072 18.8071 27.6464 18.6667 28 18.6667V16ZM18.6667 14.6667V25.3333H21.3333V14.6667H18.6667ZM20 29.3333C19.6464 29.3333 19.3072 29.1929 19.0572 28.9428C18.8071 28.6928 18.6667 28.3536 18.6667 28H16C16 29.0609 16.4214 30.0783 17.1716 30.8284C17.9217 31.5786 18.9391 32 20 32V29.3333ZM21.3333 28C21.3333 28.3536 21.1929 28.6928 20.9428 28.9428C20.6928 29.1929 20.3536 29.3333 20 29.3333V32C21.0609 32 22.0783 31.5786 22.8284 30.8284C23.5786 30.0783 24 29.0609 24 28H21.3333ZM20 26.6667C20.3536 26.6667 20.6928 26.8071 20.9428 27.0572C21.1929 27.3072 21.3333 27.6464 21.3333 28H24C24 26.9391 23.5786 25.9217 22.8284 25.1716C22.0783 24.4214 21.0609 24 20 24V26.6667ZM20 24C18.9391 24 17.9217 24.4214 17.1716 25.1716C16.4214 25.9217 16 26.9391 16 28H18.6667C18.6667 27.6464 18.8071 27.3072 19.0572 27.0572C19.3072 26.8071 19.6464 26.6667 20 26.6667V24Z" fill="white"/>
</svg>
