<svg width="30" height="30" viewBox="0 0 30 30" fill="none" xmlns="http://www.w3.org/2000/svg">
<path d="M12.5 17.5L26.25 3.75M12.5 17.5L16.875 26.25C16.9299 26.3697 17.0179 26.4711 17.1287 26.5422C17.2395 26.6133 17.3684 26.6511 17.5 26.6511C17.6317 26.6511 17.7605 26.6133 17.8713 26.5422C17.9821 26.4711 18.0702 26.3697 18.125 26.25L26.25 3.75M12.5 17.5L3.75003 13.125C3.63035 13.0702 3.52893 12.9821 3.45783 12.8713C3.38673 12.7605 3.34894 12.6316 3.34894 12.5C3.34894 12.3684 3.38673 12.2395 3.45783 12.1287C3.52893 12.0179 3.63035 11.9298 3.75003 11.875L26.25 3.75" stroke="white" stroke-width="2" stroke-linecap="round" stroke-linejoin="round"/>
</svg>
